<?xml version="1.0" encoding="UTF-8" standalone="no"?>
<!DOCTYPE svg PUBLIC "-//W3C//DTD SVG 1.1//EN" "http://www.w3.org/Graphics/SVG/1.1/DTD/svg11.dtd">
<svg width="100%" height="100%" viewBox="0 0 700 700" version="1.1" xmlns="http://www.w3.org/2000/svg" xmlns:xlink="http://www.w3.org/1999/xlink" xml:space="preserve" xmlns:serif="http://www.serif.com/" style="fill-rule:evenodd;clip-rule:evenodd;stroke-linejoin:round;stroke-miterlimit:2;">
    <g transform="matrix(1,0,0,1,-150,-80)">
        <g transform="matrix(1,0,0,1,-50,-20)">
            <path d="M900,275C900,178.415 821.585,100 725,100L375,100C278.415,100 200,178.415 200,275L200,625C200,721.585 278.415,800 375,800L725,800C821.585,800 900,721.585 900,625L900,275Z" style="fill:url(#_Linear1);"/>
        </g>
        <g transform="matrix(622.765,0,0,622.765,277.05,665.717)">
            <path d="M0.6,-0.049L0.6,-0.101C0.6,-0.108 0.6,-0.121 0.601,-0.141C0.601,-0.16 0.601,-0.183 0.602,-0.21C0.603,-0.237 0.603,-0.265 0.604,-0.295C0.604,-0.325 0.604,-0.353 0.605,-0.38C0.606,-0.407 0.606,-0.43 0.607,-0.45C0.607,-0.469 0.607,-0.482 0.607,-0.489L0.607,-0.531L0.605,-0.527L0.4,-0.075C0.399,-0.073 0.397,-0.07 0.395,-0.065C0.393,-0.059 0.392,-0.056 0.391,-0.055L0.387,-0.051L0.379,-0.045C0.378,-0.045 0.376,-0.044 0.374,-0.042C0.372,-0.039 0.37,-0.038 0.369,-0.038C0.368,-0.037 0.366,-0.036 0.362,-0.033C0.36,-0.032 0.358,-0.031 0.357,-0.03C0.356,-0.029 0.355,-0.029 0.354,-0.029C0.353,-0.028 0.351,-0.028 0.349,-0.028L0.343,-0.028C0.342,-0.029 0.34,-0.029 0.338,-0.03C0.335,-0.031 0.332,-0.032 0.331,-0.034C0.33,-0.035 0.328,-0.037 0.326,-0.038C0.324,-0.039 0.322,-0.039 0.321,-0.039C0.32,-0.04 0.317,-0.042 0.314,-0.045C0.31,-0.048 0.307,-0.05 0.306,-0.051L0.302,-0.055L0.3,-0.059L0.105,-0.529C0.104,-0.53 0.102,-0.534 0.1,-0.541C0.096,-0.548 0.093,-0.555 0.089,-0.564C0.085,-0.572 0.081,-0.58 0.078,-0.589C0.074,-0.598 0.071,-0.604 0.069,-0.609C0.069,-0.61 0.068,-0.612 0.067,-0.613C0.066,-0.614 0.065,-0.616 0.065,-0.617L0.061,-0.073C0.061,-0.072 0.061,-0.07 0.062,-0.069C0.063,-0.068 0.063,-0.066 0.063,-0.065L0.063,-0.057C0.063,-0.056 0.063,-0.055 0.062,-0.054C0.061,-0.051 0.06,-0.05 0.059,-0.049C0.059,-0.048 0.058,-0.046 0.057,-0.045C0.056,-0.044 0.054,-0.042 0.053,-0.041C0.051,-0.039 0.049,-0.038 0.048,-0.037L0.045,-0.034C0.044,-0.033 0.043,-0.033 0.042,-0.033C0.041,-0.032 0.039,-0.032 0.037,-0.032L0.035,-0.032C0.035,-0.032 0.034,-0.033 0.031,-0.034C0.03,-0.035 0.029,-0.035 0.028,-0.036C0.027,-0.036 0.025,-0.037 0.023,-0.039C0.021,-0.04 0.019,-0.042 0.018,-0.043L0.012,-0.049L0.012,-0.15C0.012,-0.151 0.012,-0.153 0.012,-0.156L0.011,-0.177C0.01,-0.18 0.01,-0.182 0.01,-0.183L0.01,-0.219C0.01,-0.226 0.01,-0.234 0.011,-0.241C0.011,-0.247 0.011,-0.252 0.012,-0.254L0.012,-0.209L0.012,-0.323L0.012,-0.262L-0.002,-0.661L-0.002,-0.726L0.028,-0.755L0.061,-0.755L0.071,-0.749C0.074,-0.748 0.076,-0.746 0.079,-0.745C0.082,-0.743 0.084,-0.741 0.085,-0.74L0.089,-0.736C0.09,-0.735 0.092,-0.731 0.095,-0.725C0.098,-0.718 0.1,-0.714 0.101,-0.712L0.341,-0.195C0.341,-0.194 0.341,-0.193 0.342,-0.192C0.342,-0.191 0.342,-0.191 0.343,-0.191L0.345,-0.191L0.346,-0.192C0.346,-0.193 0.346,-0.193 0.347,-0.194C0.347,-0.194 0.347,-0.194 0.347,-0.195L0.546,-0.661C0.547,-0.663 0.549,-0.667 0.551,-0.672C0.553,-0.677 0.555,-0.681 0.556,-0.682L0.57,-0.71L0.57,-0.706C0.569,-0.705 0.569,-0.705 0.569,-0.704C0.568,-0.703 0.568,-0.702 0.568,-0.7C0.567,-0.698 0.565,-0.695 0.564,-0.692C0.563,-0.688 0.562,-0.685 0.562,-0.684L0.353,-0.172L0.367,-0.14L0.369,-0.146C0.37,-0.149 0.374,-0.158 0.381,-0.172C0.387,-0.186 0.395,-0.203 0.404,-0.223C0.413,-0.242 0.422,-0.264 0.433,-0.288C0.444,-0.311 0.454,-0.335 0.465,-0.358C0.475,-0.381 0.484,-0.403 0.493,-0.424C0.502,-0.444 0.509,-0.46 0.515,-0.473C0.522,-0.49 0.532,-0.511 0.543,-0.538C0.554,-0.564 0.564,-0.59 0.575,-0.615C0.586,-0.64 0.595,-0.662 0.602,-0.681C0.609,-0.699 0.613,-0.709 0.613,-0.71L0.613,-0.72L0.615,-0.716L0.641,-0.732C0.642,-0.732 0.643,-0.732 0.644,-0.733C0.645,-0.733 0.645,-0.733 0.645,-0.734L0.651,-0.73L0.657,-0.73C0.658,-0.73 0.66,-0.729 0.662,-0.728C0.664,-0.727 0.665,-0.725 0.665,-0.724L0.667,-0.714C0.668,-0.713 0.67,-0.71 0.673,-0.707C0.676,-0.704 0.677,-0.701 0.678,-0.7L0.68,-0.653L0.692,-0.101L0.692,-0.051L0.69,-0.051C0.689,-0.052 0.687,-0.054 0.685,-0.055C0.683,-0.056 0.681,-0.058 0.68,-0.059C0.68,-0.058 0.68,-0.056 0.679,-0.054C0.678,-0.052 0.678,-0.05 0.678,-0.049C0.678,-0.048 0.676,-0.046 0.673,-0.043C0.67,-0.04 0.667,-0.037 0.665,-0.036L0.661,-0.034L0.649,-0.034C0.648,-0.035 0.646,-0.036 0.645,-0.037C0.642,-0.038 0.64,-0.04 0.639,-0.041L0.631,-0.049C0.631,-0.05 0.631,-0.052 0.63,-0.054C0.629,-0.056 0.629,-0.058 0.629,-0.059L0.617,-0.049L0.617,-0.162C0.616,-0.16 0.616,-0.156 0.616,-0.151L0.614,-0.118C0.613,-0.113 0.613,-0.109 0.613,-0.107L0.613,-0.047L0.625,-0.036C0.626,-0.035 0.628,-0.033 0.631,-0.031L0.647,-0.016L0.665,-0.016L0.698,-0.049L0.714,-0.722L0.718,-0.716L0.718,-0.432C0.718,-0.418 0.718,-0.402 0.718,-0.383C0.717,-0.364 0.717,-0.345 0.716,-0.324C0.715,-0.303 0.715,-0.282 0.715,-0.261C0.714,-0.239 0.714,-0.218 0.714,-0.198C0.713,-0.15 0.713,-0.1 0.712,-0.049L0.665,-0.002L0.647,-0.002L0.6,-0.049ZM0.347,-0.075C0.347,-0.076 0.347,-0.077 0.346,-0.077C0.345,-0.077 0.345,-0.076 0.345,-0.075C0.345,-0.074 0.345,-0.073 0.346,-0.073C0.347,-0.073 0.347,-0.074 0.347,-0.075ZM0.345,-0.099L0.347,-0.099L0.349,-0.103L0.349,-0.105L0.345,-0.105L0.345,-0.099ZM0.333,-0.126C0.333,-0.125 0.333,-0.124 0.334,-0.123C0.335,-0.12 0.336,-0.119 0.337,-0.118L0.339,-0.116L0.345,-0.118L0.349,-0.118L0.353,-0.116L0.355,-0.116L0.357,-0.12L0.357,-0.128L0.347,-0.15L0.345,-0.154C0.345,-0.153 0.344,-0.151 0.343,-0.15C0.342,-0.149 0.341,-0.147 0.341,-0.146C0.341,-0.145 0.34,-0.142 0.338,-0.139C0.336,-0.136 0.335,-0.133 0.335,-0.132C0.335,-0.131 0.335,-0.131 0.335,-0.13C0.334,-0.129 0.334,-0.129 0.334,-0.128C0.333,-0.127 0.333,-0.127 0.333,-0.126ZM0.325,-0.146C0.325,-0.147 0.326,-0.149 0.328,-0.152C0.33,-0.155 0.331,-0.157 0.331,-0.158C0.332,-0.159 0.332,-0.16 0.333,-0.161C0.333,-0.162 0.333,-0.163 0.334,-0.164C0.335,-0.165 0.335,-0.167 0.335,-0.168L0.335,-0.176L0.083,-0.728L0.081,-0.732L0.076,-0.737C0.075,-0.738 0.074,-0.738 0.073,-0.739C0.072,-0.74 0.072,-0.74 0.071,-0.74C0.07,-0.74 0.068,-0.741 0.067,-0.742L0.065,-0.744C0.064,-0.745 0.063,-0.746 0.06,-0.747C0.059,-0.748 0.058,-0.748 0.057,-0.748L0.03,-0.748L0.006,-0.724L0.006,-0.681C0.006,-0.668 0.006,-0.653 0.007,-0.635C0.007,-0.616 0.007,-0.597 0.007,-0.577C0.007,-0.557 0.007,-0.537 0.008,-0.517C0.009,-0.497 0.009,-0.479 0.009,-0.464C0.009,-0.448 0.009,-0.435 0.01,-0.425C0.01,-0.414 0.01,-0.409 0.01,-0.408L0.012,-0.369C0.012,-0.378 0.012,-0.391 0.013,-0.409C0.013,-0.426 0.013,-0.446 0.013,-0.468C0.013,-0.49 0.013,-0.513 0.014,-0.538C0.015,-0.562 0.015,-0.585 0.015,-0.607C0.015,-0.629 0.015,-0.649 0.016,-0.667L0.016,-0.708L0.014,-0.714L0.014,-0.722L0.025,-0.733C0.026,-0.734 0.027,-0.734 0.028,-0.735C0.029,-0.736 0.029,-0.736 0.03,-0.736L0.034,-0.738L0.055,-0.738C0.056,-0.738 0.057,-0.738 0.058,-0.737C0.061,-0.736 0.062,-0.735 0.063,-0.734C0.064,-0.733 0.065,-0.733 0.066,-0.732C0.067,-0.731 0.069,-0.73 0.071,-0.728L0.073,-0.726L0.319,-0.158L0.325,-0.146ZM0.621,-0.562L0.621,-0.523C0.621,-0.514 0.621,-0.499 0.622,-0.48C0.623,-0.461 0.623,-0.439 0.624,-0.415C0.624,-0.39 0.624,-0.365 0.625,-0.338C0.626,-0.311 0.626,-0.285 0.627,-0.261C0.627,-0.236 0.627,-0.214 0.628,-0.195C0.628,-0.176 0.628,-0.161 0.629,-0.152L0.629,-0.367C0.629,-0.379 0.629,-0.393 0.629,-0.408C0.628,-0.423 0.628,-0.44 0.628,-0.457C0.628,-0.474 0.628,-0.49 0.628,-0.505C0.627,-0.52 0.627,-0.534 0.627,-0.547L0.627,-0.574L0.621,-0.562ZM0.546,-0.434C0.545,-0.434 0.544,-0.433 0.544,-0.432C0.544,-0.431 0.545,-0.43 0.546,-0.43C0.547,-0.43 0.548,-0.431 0.548,-0.432C0.548,-0.433 0.547,-0.434 0.546,-0.434ZM0.548,-0.438C0.547,-0.438 0.546,-0.437 0.546,-0.436C0.546,-0.435 0.547,-0.434 0.548,-0.434C0.549,-0.434 0.55,-0.435 0.55,-0.436C0.55,-0.437 0.549,-0.438 0.548,-0.438ZM0.55,-0.442C0.549,-0.442 0.548,-0.441 0.548,-0.44C0.548,-0.439 0.549,-0.438 0.55,-0.438C0.551,-0.438 0.552,-0.439 0.552,-0.44C0.552,-0.441 0.551,-0.442 0.55,-0.442ZM0.554,-0.45L0.552,-0.446L0.552,-0.444L0.554,-0.448L0.554,-0.45ZM0.556,-0.456C0.555,-0.456 0.554,-0.455 0.554,-0.454C0.554,-0.453 0.555,-0.452 0.556,-0.452C0.557,-0.452 0.558,-0.453 0.558,-0.454C0.558,-0.455 0.557,-0.456 0.556,-0.456ZM0.564,-0.471C0.563,-0.47 0.561,-0.468 0.56,-0.466C0.559,-0.463 0.558,-0.461 0.558,-0.46L0.558,-0.458C0.559,-0.459 0.561,-0.461 0.562,-0.464C0.563,-0.466 0.564,-0.468 0.564,-0.469L0.564,-0.471ZM0.566,-0.475C0.567,-0.476 0.569,-0.479 0.57,-0.483C0.571,-0.487 0.573,-0.49 0.574,-0.491C0.575,-0.493 0.577,-0.497 0.58,-0.503C0.583,-0.509 0.586,-0.516 0.589,-0.523L0.604,-0.556C0.604,-0.557 0.604,-0.559 0.606,-0.561C0.607,-0.563 0.607,-0.565 0.607,-0.566C0.607,-0.567 0.607,-0.569 0.608,-0.57C0.609,-0.571 0.609,-0.573 0.609,-0.574L0.607,-0.572L0.566,-0.477L0.566,-0.475ZM0.627,-0.617C0.626,-0.616 0.624,-0.614 0.623,-0.611C0.622,-0.608 0.621,-0.605 0.621,-0.604L0.621,-0.598L0.623,-0.6L0.625,-0.604C0.625,-0.605 0.625,-0.606 0.626,-0.607C0.626,-0.608 0.626,-0.608 0.627,-0.609L0.627,-0.617ZM0.586,-0.619C0.585,-0.619 0.584,-0.618 0.584,-0.617C0.584,-0.616 0.585,-0.615 0.586,-0.615C0.587,-0.615 0.588,-0.616 0.588,-0.617C0.588,-0.618 0.587,-0.619 0.586,-0.619ZM0.59,-0.629C0.589,-0.629 0.588,-0.628 0.588,-0.627C0.588,-0.626 0.589,-0.625 0.59,-0.625C0.591,-0.625 0.592,-0.626 0.592,-0.627C0.592,-0.628 0.591,-0.629 0.59,-0.629ZM0.592,-0.633C0.591,-0.633 0.59,-0.633 0.59,-0.632C0.59,-0.631 0.591,-0.631 0.592,-0.631C0.593,-0.631 0.594,-0.631 0.594,-0.632C0.594,-0.633 0.593,-0.633 0.592,-0.633ZM0.594,-0.639C0.593,-0.639 0.592,-0.638 0.592,-0.637C0.592,-0.636 0.593,-0.635 0.594,-0.635C0.595,-0.635 0.596,-0.636 0.596,-0.637C0.596,-0.638 0.595,-0.639 0.594,-0.639ZM0.596,-0.643C0.595,-0.643 0.594,-0.642 0.594,-0.641C0.594,-0.64 0.595,-0.639 0.596,-0.639C0.597,-0.639 0.598,-0.64 0.598,-0.641C0.598,-0.642 0.597,-0.643 0.596,-0.643ZM0.6,-0.651L0.598,-0.647L0.598,-0.645L0.6,-0.649L0.6,-0.651ZM0.602,-0.657C0.601,-0.657 0.6,-0.656 0.6,-0.655C0.6,-0.654 0.601,-0.653 0.602,-0.653C0.603,-0.653 0.604,-0.654 0.604,-0.655C0.604,-0.656 0.603,-0.657 0.602,-0.657ZM0.607,-0.669C0.607,-0.668 0.607,-0.666 0.606,-0.665C0.604,-0.664 0.604,-0.662 0.604,-0.661L0.604,-0.659C0.604,-0.66 0.604,-0.662 0.606,-0.663C0.607,-0.664 0.607,-0.666 0.607,-0.667L0.607,-0.669ZM0.609,-0.675C0.608,-0.675 0.607,-0.675 0.607,-0.674C0.607,-0.673 0.608,-0.673 0.609,-0.673C0.61,-0.673 0.611,-0.673 0.611,-0.674C0.611,-0.675 0.61,-0.675 0.609,-0.675ZM0.669,-0.7C0.668,-0.701 0.668,-0.7 0.668,-0.699C0.667,-0.697 0.667,-0.695 0.667,-0.693C0.667,-0.691 0.667,-0.689 0.668,-0.688C0.668,-0.686 0.668,-0.685 0.669,-0.686C0.67,-0.687 0.671,-0.69 0.671,-0.693C0.671,-0.696 0.67,-0.699 0.669,-0.7ZM0.627,-0.712L0.623,-0.708L0.621,-0.704C0.62,-0.701 0.619,-0.699 0.619,-0.698L0.619,-0.696L0.621,-0.698C0.622,-0.699 0.624,-0.702 0.625,-0.705C0.626,-0.708 0.627,-0.711 0.627,-0.712Z" style="fill:white;fill-rule:nonzero;"/>
        </g>
        <path d="M200,300C200,300 191.408,192.07 228.963,160C275.804,120 340,120 340,120C268.196,132.879 195.751,247.182 200,300Z" style="fill:white;fill-opacity:0.47;"/>
    </g>
    <defs>
        <linearGradient id="_Linear1" x1="0" y1="0" x2="1" y2="0" gradientUnits="userSpaceOnUse" gradientTransform="matrix(5.4558e-14,891,-891,5.4558e-14,540,100)"><stop offset="0" style="stop-color:rgb(0,191,143);stop-opacity:1"/><stop offset="1" style="stop-color:rgb(0,21,16);stop-opacity:1"/></linearGradient>
    </defs>
</svg>
